P2
# Generated by OpenCV 3.2.0
4 2
255
   0   1   2   3
  12  32 128 255
