P2
# Generated by OpenCV 3.2.0 
3 3
255
255 0 0  
0 255 255
0 0 0
