P2
# Generated by OpenCV 3.2.0 
3 3
255
1 2 3
4 5 6
7 8 9
